<svg width="300" height="297" viewBox="0 0 300 297" fill="none" xmlns="http://www.w3.org/2000/svg">
<path d="M147.969 70.5194H146.338V25.8522C146.338 18.996 143.614 12.4206 138.766 7.57251C133.918 2.72442 127.342 0.000793457 120.486 0.000793457H25.8523C18.996 0.000793457 12.4206 2.72442 7.57252 7.57251C2.72443 12.4206 0.000793457 18.996 0.000793457 25.8522V270.9C0.000793457 277.757 2.72443 284.332 7.57252 289.18C12.4206 294.028 18.996 296.752 25.8523 296.752H120.486C127.342 296.752 133.917 294.028 138.765 289.18C143.614 284.332 146.337 277.757 146.337 270.9V102.314H147.968L147.969 70.5194Z" fill="#3F3D56"/>
<path d="M121.529 6.72583H109.176C109.745 8.11866 109.962 9.62991 109.808 11.1264C109.655 12.6229 109.136 14.0587 108.297 15.3073C107.458 16.5559 106.325 17.579 104.997 18.2863C103.669 18.9937 102.188 19.3637 100.684 19.3637H46.4694C44.9653 19.3636 43.4842 18.9935 42.1568 18.2862C40.8293 17.5788 39.6962 16.5559 38.8572 15.3075C38.0182 14.0591 37.4991 12.6235 37.3457 11.1272C37.1922 9.63087 37.4091 8.11979 37.9772 6.72705H26.4378C21.3175 6.72705 16.4069 8.76109 12.7862 12.3817C9.16561 16.0023 7.13159 20.9129 7.13159 26.0333V270.72C7.13159 275.841 9.16561 280.751 12.7862 284.372C16.4069 287.993 21.3175 290.027 26.4378 290.027H121.525C126.646 290.027 131.556 287.993 135.177 284.372C138.798 280.751 140.832 275.841 140.832 270.72V270.72V26.032C140.832 20.9117 138.798 16.0011 135.177 12.3805C131.556 8.75987 126.646 6.72583 121.525 6.72583H121.529Z" fill="white"/>
<path d="M128.739 54.8376H19.2299V241.915H128.739V54.8376Z" fill="#E6E6E6"/>
<path d="M74.1468 276.353C80.0018 276.353 84.7483 271.606 84.7483 265.751C84.7483 259.896 80.0018 255.15 74.1468 255.15C68.2917 255.15 63.5452 259.896 63.5452 265.751C63.5452 271.606 68.2917 276.353 74.1468 276.353Z" fill="#E6E6E6"/>
<path d="M124.824 261.94L123.613 273.648L130.476 272.84L131.283 263.151L124.824 261.94Z" fill="#FFB9B9"/>
<path d="M106.658 173.124C106.658 173.124 71.5347 207.036 93.7388 217.532H100.602C100.602 217.532 115.539 192.904 122.806 193.31L124.824 216.725L123.613 263.959L132.495 264.363C132.495 264.363 137.743 240.544 137.339 227.221L146.625 177.969L106.658 173.124Z" fill="#2F2E41"/>
<path d="M95.7563 215.918L100.601 217.532C100.601 217.532 119.575 213.091 120.785 213.495L124.541 213.469L124.419 203.806H108.272L95.7563 215.918Z" fill="#2F2E41"/>
<path d="M131.283 271.226C131.283 271.226 124.016 267.996 122.805 271.226C121.594 274.456 121.998 283.741 121.998 283.741C122.966 285.603 123.252 287.746 122.805 289.796C121.998 293.026 126.035 294.641 131.283 293.026C136.531 291.412 136.531 287.374 136.531 287.374L131.283 271.226Z" fill="#2F2E41"/>
<path d="M137.338 202.997C137.338 202.997 142.99 199.767 142.587 204.611C142.252 207.811 141.435 210.941 140.164 213.897C140.164 213.897 145.412 227.623 140.164 228.834C134.916 230.045 130.879 227.219 130.879 225.2C130.879 223.182 137.338 202.997 137.338 202.997Z" fill="#2F2E41"/>
<path d="M119.575 92.3823L120.383 107.723L127.246 113.778L134.916 102.878V91.9786L119.575 92.3823Z" fill="#FFB9B9"/>
<path d="M124.823 107.723L120.202 104.289L117.153 108.934L103.427 117.008L111.5 138L111.904 158.59C111.904 158.59 96.9669 173.931 105.849 175.949C114.73 177.968 146.22 182.409 147.834 178.775C149.449 175.142 145.816 137.597 145.816 137.597L147.027 105.704L134.917 101.325L124.823 107.723Z" fill="#FAA885"/>
<path d="M100.197 133.292C100.197 133.292 96.9673 156.167 103.023 156.167C106.62 156.179 110.184 155.494 113.52 154.148L108.675 141.633L110.693 133.155L100.197 133.292Z" fill="#FFB9B9"/>
<path d="M109.482 153.342L113.923 154.15C113.923 154.15 126.842 146.076 127.649 145.672C128.457 145.267 114.731 138.405 114.731 138.405L105.445 142.038L109.482 153.342Z" fill="#FFB9B9"/>
<path opacity="0.1" d="M114.731 138.405L108.9 140.686L110.694 133.157L100.198 133.292C100.198 133.292 96.9677 156.166 103.024 156.166C106.62 156.179 110.185 155.493 113.52 154.148L113.489 154.069L113.924 154.148C113.924 154.148 126.842 146.075 127.65 145.67C128.457 145.266 114.731 138.405 114.731 138.405Z" fill="black"/>
<path d="M128.915 100.037C135.281 100.037 140.443 94.8757 140.443 88.509C140.443 82.1423 135.281 76.9811 128.915 76.9811C122.548 76.9811 117.387 82.1423 117.387 88.509C117.387 94.8757 122.548 100.037 128.915 100.037Z" fill="#FFB9B9"/>
<path d="M118.723 75.5038L116.47 74.6022C116.47 74.6022 121.18 69.4173 127.732 69.8682L125.889 67.8393C125.889 67.8393 130.394 66.0358 134.489 70.7698C136.642 73.2571 139.132 76.1835 140.686 79.4785H143.099L142.092 81.6951L145.615 83.9128L141.998 83.5145C142.34 85.4283 142.223 87.3961 141.656 89.2556L141.753 91.0089C141.753 91.0089 137.561 84.5228 137.561 83.6213V85.8758C137.561 85.8758 135.308 83.8468 135.308 82.4943L134.08 84.0723L133.464 81.5887L125.888 84.0682L127.116 82.0392L122.407 82.7157L124.25 80.2361C124.25 80.2361 118.926 83.1667 118.721 85.6466C118.516 88.1265 115.854 91.2821 115.854 91.2821L114.626 89.0277C114.626 89.0277 112.784 78.8853 118.723 75.5038Z" fill="#2F2E41"/>
<path d="M138.953 126.294C136.916 128.811 135.779 131.937 135.723 135.175L114.327 134.368C114.327 134.368 108.675 133.561 108.675 137.598V141.635C108.675 141.635 111.501 140.424 113.116 141.635C114.73 142.846 132.09 153.342 140.568 149.305C149.046 145.268 151.064 129.524 151.064 129.524C151.064 129.524 143.394 123.064 138.953 126.294Z" fill="#FFB9B9"/>
<path d="M143.8 106.108L147.029 105.704C147.029 105.704 153.489 106.512 152.681 119.027C151.874 131.542 151.47 132.349 151.47 132.349C151.47 132.349 142.992 124.679 136.937 128.313L143.8 106.108Z" fill="#FAA885"/>
<path d="M105.042 117.01H103.427C101.335 119.652 100.197 122.924 100.197 126.295C100.16 129.905 99.6857 133.497 98.7843 136.993L111.501 134.773L105.042 117.01Z" fill="#FAA885"/>
<path d="M300 54.8271H182.775V77.9715H300V54.8271Z" fill="#E6E6E6"/>
<path d="M185.274 75.4728H297.501V57.3278H185.274V75.4728Z" fill="white"/>
<path d="M195.098 59.336C196.465 59.336 197.802 59.7415 198.939 60.5011C200.076 61.2608 200.962 62.3405 201.485 63.6038C202.008 64.867 202.145 66.2571 201.879 67.5982C201.612 68.9392 200.953 70.1711 199.987 71.1379C199.02 72.1048 197.788 72.7632 196.447 73.03C195.106 73.2968 193.716 73.1598 192.452 72.6366C191.189 72.1133 190.109 71.2272 189.35 70.0903C188.59 68.9534 188.185 67.6168 188.185 66.2494C188.185 64.4159 188.913 62.6574 190.21 61.3609C191.506 60.0644 193.265 59.336 195.098 59.336V59.336Z" fill="#FAA885"/>
<path d="M279.861 63.544H211.63V65.047H279.861V63.544Z" fill="#E6E6E6"/>
<path d="M279.861 67.4515H211.63V68.9544H279.861V67.4515Z" fill="#E6E6E6"/>
<path d="M300 87.855H182.775V110.999H300V87.855Z" fill="#E6E6E6"/>
<path d="M185.274 108.501H297.501V90.3557H185.274V108.501Z" fill="white"/>
<path d="M195.098 106.191C198.916 106.191 202.011 103.096 202.011 99.2773C202.011 95.4591 198.916 92.3639 195.098 92.3639C191.28 92.3639 188.185 95.4591 188.185 99.2773C188.185 103.096 191.28 106.191 195.098 106.191Z" fill="#FAA885"/>
<path d="M279.861 96.5719H211.63V98.0749H279.861V96.5719Z" fill="#E6E6E6"/>
<path d="M279.861 100.479H211.63V101.982H279.861V100.479Z" fill="#E6E6E6"/>
<path d="M300 120.883H182.775V144.027H300V120.883Z" fill="#E6E6E6"/>
<path d="M185.274 141.528H297.501V123.384H185.274V141.528Z" fill="white"/>
<path d="M195.098 139.219C198.916 139.219 202.011 136.123 202.011 132.305C202.011 128.487 198.916 125.392 195.098 125.392C191.28 125.392 188.185 128.487 188.185 132.305C188.185 136.123 191.28 139.219 195.098 139.219Z" fill="#FAA885"/>
<path d="M279.861 129.6H211.63V131.103H279.861V129.6Z" fill="#E6E6E6"/>
<path d="M279.861 133.507H211.63V135.01H279.861V133.507Z" fill="#E6E6E6"/>
</svg>
