<svg width="300" height="298" viewBox="0 0 300 298" fill="none" xmlns="http://www.w3.org/2000/svg">
<g clip-path="url(#clip0_202_43)">
<path d="M30.5343 290.457H23.5647L17.2587 246.315L12.612 220.759L29.2067 217.108L29.3726 240.009L30.5343 290.457Z" fill="#9F616A"/>
<path d="M52.9373 290.457H45.3037L38.9977 246.315L34.3511 220.759L50.9461 217.108L51.112 240.009L52.9373 290.457Z" fill="#9F616A"/>
<path d="M54.7629 241.834L34.8491 245.485L31.53 239.511L30.8664 245.153L11.9484 245.817L11.2845 199.684L49.1205 197.692L54.7629 241.834Z" fill="#2F2E41"/>
<path d="M61.0738 297.261H45.8158C45.1958 297.261 44.6013 297.015 44.1629 296.576C43.7245 296.138 43.4783 295.543 43.4783 294.923V290.464C43.4783 290.209 43.5285 289.957 43.626 289.721C43.7236 289.486 43.8665 289.272 44.0468 289.092C44.227 288.912 44.441 288.769 44.6765 288.671C44.912 288.573 45.1644 288.523 45.4193 288.523C47.2771 290.341 49.4177 290.198 51.779 288.523L51.8941 287.871C51.9497 287.556 52.0864 287.261 52.2907 287.014C52.495 286.768 52.7598 286.579 53.0592 286.466C53.3586 286.353 53.6823 286.32 53.9983 286.37C54.3144 286.42 54.612 286.552 54.8619 286.752L58.9876 290.052L60.1172 289.759C60.6807 289.613 61.2701 289.598 61.8402 289.715C62.4104 289.832 62.9462 290.078 63.4065 290.435C63.8668 290.791 64.2395 291.248 64.4959 291.77C64.7522 292.293 64.8855 292.867 64.8855 293.449V293.449C64.8855 293.95 64.7869 294.445 64.5954 294.908C64.4038 295.37 64.123 295.791 63.7691 296.144C63.4151 296.498 62.995 296.779 62.5325 296.971C62.07 297.162 61.5744 297.261 61.0738 297.261V297.261Z" fill="#2F2E41"/>
<path d="M38.8368 297.261H23.5788C22.9589 297.261 22.3643 297.015 21.9259 296.576C21.4876 296.138 21.2413 295.543 21.2413 294.923V290.464C21.2413 290.209 21.2915 289.957 21.3891 289.721C21.4866 289.486 21.6296 289.272 21.8098 289.092C21.9901 288.912 22.204 288.769 22.4395 288.671C22.675 288.573 22.9274 288.523 23.1823 288.523C25.0401 290.341 27.1807 290.198 29.5421 288.523L29.6571 287.871C29.7127 287.556 29.8494 287.261 30.0537 287.014C30.258 286.768 30.5228 286.579 30.8222 286.466C31.1217 286.353 31.4453 286.32 31.7614 286.37C32.0774 286.42 32.375 286.552 32.6249 286.752L36.7506 290.052L37.8803 289.759C38.4437 289.613 39.0331 289.598 39.6033 289.715C40.1734 289.832 40.7092 290.078 41.1695 290.435C41.6299 290.791 42.0025 291.248 42.2589 291.77C42.5153 292.293 42.6486 292.867 42.6486 293.449V293.449C42.6486 293.95 42.55 294.445 42.3584 294.908C42.1669 295.37 41.8861 295.791 41.5321 296.144C41.1782 296.498 40.758 296.779 40.2955 296.971C39.8331 297.162 39.3374 297.261 38.8368 297.261V297.261Z" fill="#2F2E41"/>
<path d="M41.155 112.395C47.9371 112.395 53.4351 106.897 53.4351 100.115C53.4351 93.3329 47.9371 87.8349 41.155 87.8349C34.3729 87.8349 28.8749 93.3329 28.8749 100.115C28.8749 106.897 34.3729 112.395 41.155 112.395Z" fill="#9F616A"/>
<path d="M33.8534 120.361L22.5689 117.374L30.5343 100.115L41.1551 107.749L33.8534 120.361Z" fill="#9F616A"/>
<path d="M50.4481 201.675C40.4704 196.36 33.561 199.623 24.6004 206.054C17.6218 211.062 7.77233 205.506 0 203.998L6.01812 135.444C6.49685 129.991 8.57477 124.8 11.9914 120.523C15.408 116.245 20.0112 113.072 25.224 111.4V111.4L36.1766 116.378C41.2279 123.57 42.8386 138.641 45.4696 156.205C47.7394 171.357 48.5521 184.921 50.4481 201.675Z" fill="#FF9162"/>
<path d="M38.4999 192.714L40.0419 201.002C40.1857 201.775 40.1713 202.569 39.9997 203.336C39.8281 204.103 39.5029 204.827 39.0436 205.465C38.5843 206.103 38.0005 206.641 37.3275 207.047C36.6544 207.453 35.9061 207.718 35.1277 207.826C34.2007 207.956 33.2561 207.859 32.3743 207.546C31.4925 207.232 30.6994 206.71 30.0624 206.024C29.4254 205.338 28.9634 204.509 28.7155 203.606C28.4676 202.704 28.4412 201.755 28.6386 200.84L30.5344 192.05L21.2413 155.873L22.5689 142.93L35.8447 142.598C37.108 146.406 36.656 150.402 34.8491 154.546L38.4999 192.714Z" fill="#9F616A"/>
<path d="M34.0567 101.635C35.0301 101.577 35.9806 101.906 36.9473 102.034C40.4059 102.493 44.0039 99.9835 44.7676 96.5792C44.8288 96.1258 44.9639 95.6856 45.1675 95.2759C45.6998 94.4069 46.9121 94.2412 47.9115 94.441C48.9108 94.6409 49.8581 95.1086 50.8758 95.162C52.4472 95.2444 53.9558 94.277 54.7932 92.9448C55.5846 91.5705 55.9212 89.9811 55.7547 88.4039L55.0014 89.1945C54.6953 88.547 54.5771 87.8264 54.6603 87.115C54.2611 87.0087 53.8413 87.0066 53.4411 87.1091C53.0409 87.2115 52.6737 87.4149 52.3746 87.6999C51.7104 87.7706 52.2117 86.4678 51.7182 86.0176C51.4782 85.8701 51.1921 85.8166 50.9151 85.8674C49.502 85.881 48.3588 84.8001 47.2453 83.9301C45.3159 82.4259 43.0597 81.3967 40.659 80.9258C39.0633 80.6146 37.3666 80.5646 35.8533 81.1587C34.6317 81.7071 33.5292 82.4892 32.6079 83.4608C30.2388 85.7389 28.1409 88.4156 27.1552 91.5511C26.354 94.1193 26.3313 96.8673 27.09 99.4484C27.4871 100.789 28.6841 105.38 30.4363 105.486C32.638 105.621 31.3161 101.798 34.0567 101.635Z" fill="#2F2E41"/>
<path d="M39.4955 148.904C32.9254 144.03 26.079 143.075 18.918 146.58L21.7617 127.622C22.0785 125.51 23.1428 123.582 24.761 122.189C26.3791 120.795 28.4438 120.029 30.5793 120.029V120.029C32.944 120.029 35.2119 120.968 36.884 122.64C38.5561 124.312 39.4955 126.58 39.4955 128.945L39.4955 148.904Z" fill="#FF9162"/>
<path d="M286.765 101.244L285.302 100.753L298.726 60.679C299.747 57.6331 300.157 54.416 299.934 51.2115C299.711 48.007 298.859 44.8778 297.427 42.0026C295.995 39.1273 294.01 36.5623 291.587 34.4541C289.163 32.3458 286.348 30.7355 283.302 29.7151L283.302 29.7151L198.399 1.27347C195.353 0.253121 192.136 -0.1573 188.931 0.0656337C185.727 0.288567 182.598 1.14049 179.722 2.57276C176.847 4.00504 174.282 5.98961 172.174 8.41317C170.066 10.8367 168.455 13.6518 167.435 16.6977L167.435 16.6978L93.7871 236.55C91.7264 242.701 92.1938 249.419 95.0864 255.226C97.979 261.033 103.06 265.453 109.211 267.514H109.211L194.115 295.955C200.266 298.016 206.984 297.549 212.791 294.656C218.598 291.763 223.018 286.682 225.078 280.531L225.078 280.531L275.746 129.279L277.209 129.769L286.765 101.244Z" fill="#3F3D56"/>
<path d="M282.217 36.0629L271.134 32.3504C271.225 33.7706 270.965 35.1915 270.378 36.4878C269.791 37.7841 268.893 38.916 267.766 39.7839C266.638 40.6518 265.314 41.229 263.91 41.4646C262.507 41.7003 261.067 41.5871 259.717 41.1352L211.077 24.8413C209.728 24.3891 208.51 23.612 207.532 22.5785C206.553 21.5449 205.844 20.2866 205.467 18.9144C205.089 17.5423 205.055 16.0983 205.367 14.7097C205.679 13.3211 206.328 12.0306 207.256 10.9518L196.904 7.48426C192.311 5.94537 187.294 6.29441 182.957 8.45457C178.621 10.6147 175.32 14.4091 173.781 19.0029L100.241 238.532C98.7022 243.126 99.0512 248.143 101.211 252.48C103.372 256.816 107.166 260.117 111.76 261.656H111.76L197.072 290.234C199.347 290.996 201.749 291.303 204.142 291.136C206.535 290.97 208.872 290.334 211.019 289.264C213.167 288.195 215.082 286.712 216.656 284.903C218.231 283.093 219.433 280.99 220.195 278.716V278.716L293.735 59.1863C294.497 56.9117 294.804 54.5093 294.637 52.1162C294.471 49.7231 293.835 47.3862 292.765 45.239C291.695 43.0918 290.213 41.1763 288.403 39.6019C286.594 38.0274 284.491 36.8249 282.217 36.0629V36.0629Z" fill="white"/>
<path d="M260.881 109.713L169.837 79.2137C169.39 79.0634 169.021 78.742 168.811 78.3201C168.601 77.8981 168.566 77.41 168.716 76.9629L176.281 54.3786C176.431 53.9318 176.753 53.5628 177.175 53.3526C177.597 53.1424 178.085 53.1081 178.532 53.2574L269.577 83.7563C270.023 83.9066 270.392 84.2279 270.603 84.6499C270.813 85.0718 270.847 85.5599 270.698 86.0071L263.132 108.591C262.982 109.038 262.661 109.407 262.239 109.617C261.817 109.828 261.329 109.862 260.881 109.713V109.713ZM178.306 53.9318C178.038 53.8422 177.745 53.8627 177.492 53.9889C177.238 54.115 177.046 54.3364 176.955 54.6045L169.39 77.1888C169.3 77.4571 169.321 77.75 169.447 78.0031C169.573 78.2563 169.795 78.4491 170.063 78.5393L261.107 109.038C261.376 109.128 261.669 109.107 261.922 108.981C262.175 108.855 262.368 108.634 262.458 108.366L270.023 85.7812C270.113 85.5129 270.092 85.22 269.966 84.9669C269.84 84.7137 269.619 84.5209 269.351 84.4307L178.306 53.9318Z" fill="#3F3D56"/>
<path d="M230.947 199.071L139.903 168.572C139.456 168.422 139.087 168.101 138.877 167.679C138.667 167.257 138.632 166.769 138.781 166.321L152.786 124.517C152.936 124.07 153.257 123.701 153.679 123.491C154.101 123.28 154.589 123.246 155.036 123.395L246.081 153.894C246.528 154.045 246.897 154.366 247.107 154.788C247.317 155.21 247.351 155.698 247.202 156.145L233.198 197.95C233.048 198.397 232.727 198.766 232.305 198.976C231.883 199.186 231.395 199.22 230.947 199.071ZM154.811 124.07C154.542 123.98 154.249 124.001 153.996 124.127C153.743 124.253 153.55 124.474 153.46 124.742L139.456 166.547C139.366 166.816 139.387 167.108 139.513 167.362C139.639 167.615 139.86 167.808 140.129 167.898L231.173 198.397C231.442 198.486 231.734 198.466 231.988 198.34C232.241 198.213 232.434 197.992 232.524 197.724L246.528 155.919C246.617 155.651 246.597 155.358 246.471 155.105C246.345 154.852 246.123 154.659 245.855 154.569L154.811 124.07Z" fill="#3F3D56"/>
<path d="M248.459 144.556L207.995 131.001C207.548 130.85 207.179 130.529 206.969 130.107C206.759 129.685 206.725 129.197 206.874 128.75L214.439 106.166C214.59 105.719 214.911 105.35 215.333 105.14C215.755 104.929 216.243 104.895 216.69 105.044L257.154 118.599C257.601 118.75 257.97 119.071 258.18 119.493C258.391 119.915 258.425 120.403 258.276 120.85L250.71 143.435C250.56 143.881 250.239 144.25 249.817 144.461C249.395 144.671 248.907 144.705 248.459 144.556V144.556ZM216.464 105.719C216.196 105.629 215.903 105.65 215.65 105.776C215.397 105.902 215.204 106.123 215.114 106.391L207.548 128.976C207.459 129.244 207.479 129.537 207.605 129.79C207.731 130.043 207.953 130.236 208.221 130.326L248.685 143.881C248.954 143.971 249.247 143.95 249.5 143.824C249.753 143.698 249.946 143.477 250.036 143.209L257.601 120.624C257.691 120.356 257.67 120.063 257.544 119.81C257.418 119.557 257.197 119.364 256.929 119.274L216.464 105.719Z" fill="#E6E6E6"/>
<path d="M162.068 236.754L121.603 223.199C121.157 223.049 120.788 222.727 120.577 222.305C120.367 221.883 120.333 221.395 120.482 220.948L134.599 178.806C134.749 178.359 135.071 177.99 135.493 177.78C135.915 177.57 136.403 177.536 136.85 177.685L177.314 191.24C177.761 191.39 178.13 191.712 178.34 192.134C178.551 192.556 178.585 193.044 178.436 193.491L164.319 235.633C164.168 236.08 163.847 236.449 163.425 236.659C163.003 236.869 162.515 236.903 162.068 236.754V236.754ZM136.624 178.359C136.356 178.27 136.063 178.29 135.81 178.416C135.557 178.542 135.364 178.764 135.274 179.032L121.157 221.174C121.067 221.442 121.087 221.735 121.214 221.988C121.34 222.242 121.561 222.434 121.829 222.525L162.294 236.08C162.562 236.169 162.855 236.149 163.108 236.023C163.361 235.896 163.554 235.675 163.644 235.407L177.761 193.265C177.851 192.997 177.83 192.704 177.704 192.451C177.578 192.197 177.357 192.005 177.089 191.914L136.624 178.359Z" fill="#E6E6E6"/>
<path d="M211.974 253.472L171.509 239.917C171.062 239.767 170.693 239.445 170.483 239.023C170.273 238.601 170.239 238.113 170.388 237.666L184.505 195.524C184.655 195.077 184.977 194.708 185.399 194.498C185.821 194.288 186.309 194.254 186.756 194.403L227.22 207.958C227.667 208.108 228.036 208.43 228.246 208.852C228.456 209.274 228.491 209.762 228.341 210.209L214.224 252.351C214.074 252.798 213.753 253.167 213.331 253.377C212.909 253.587 212.421 253.621 211.974 253.472V253.472ZM186.53 195.077C186.262 194.988 185.969 195.008 185.716 195.134C185.462 195.261 185.27 195.482 185.179 195.75L171.062 237.892C170.973 238.16 170.993 238.453 171.119 238.706C171.246 238.96 171.467 239.152 171.735 239.243L212.199 252.798C212.468 252.887 212.761 252.867 213.014 252.741C213.267 252.614 213.46 252.393 213.55 252.125L227.667 209.983C227.757 209.715 227.736 209.422 227.61 209.169C227.484 208.915 227.262 208.723 226.994 208.632L186.53 195.077Z" fill="#E6E6E6"/>
<path d="M163.548 149.961C167.548 149.961 170.791 146.718 170.791 142.718C170.791 138.717 167.548 135.475 163.548 135.475C159.547 135.475 156.305 138.717 156.305 142.718C156.305 146.718 159.547 149.961 163.548 149.961Z" fill="#FF9162"/>
<path d="M180.943 143.452C180.792 143.401 180.633 143.38 180.474 143.39C180.316 143.401 180.161 143.442 180.018 143.513C179.875 143.584 179.748 143.682 179.644 143.801C179.539 143.921 179.459 144.061 179.409 144.212C179.358 144.362 179.338 144.522 179.349 144.68C179.36 144.839 179.403 144.994 179.474 145.136C179.546 145.278 179.644 145.405 179.765 145.509C179.885 145.613 180.025 145.692 180.176 145.742L234.138 163.818C234.289 163.87 234.448 163.891 234.607 163.881C234.766 163.87 234.921 163.829 235.063 163.758C235.206 163.688 235.333 163.589 235.438 163.47C235.542 163.35 235.622 163.21 235.673 163.059C235.723 162.909 235.743 162.749 235.732 162.591C235.721 162.432 235.678 162.277 235.607 162.135C235.536 161.992 235.437 161.866 235.317 161.762C235.196 161.658 235.056 161.579 234.905 161.529L180.943 143.452Z" fill="#E6E6E6"/>
<path d="M178.642 150.32C178.492 150.269 178.332 150.248 178.174 150.258C178.015 150.269 177.86 150.31 177.717 150.381C177.575 150.451 177.447 150.549 177.343 150.669C177.238 150.789 177.158 150.929 177.108 151.079C177.057 151.23 177.037 151.39 177.048 151.548C177.06 151.707 177.102 151.862 177.174 152.004C177.245 152.146 177.344 152.273 177.464 152.377C177.584 152.481 177.724 152.56 177.875 152.61L201.096 160.388C201.399 160.488 201.729 160.463 202.014 160.32C202.299 160.177 202.516 159.927 202.617 159.625C202.719 159.322 202.696 158.992 202.555 158.706C202.413 158.42 202.164 158.202 201.862 158.099L178.642 150.32Z" fill="#E6E6E6"/>
<path d="M153.835 154.222C152.964 153.93 152.083 154.207 151.872 154.838C151.661 155.469 152.197 156.22 153.068 156.511L227.519 181.452C228.39 181.743 229.27 181.467 229.482 180.836C229.693 180.205 229.157 179.454 228.286 179.162L153.835 154.222Z" fill="#E6E6E6"/>
<path d="M151.534 161.09C150.663 160.798 149.783 161.074 149.571 161.706C149.36 162.337 149.896 163.088 150.767 163.379L225.218 188.32C226.089 188.611 226.97 188.335 227.181 187.704C227.392 187.073 226.856 186.322 225.985 186.03L151.534 161.09Z" fill="#E6E6E6"/>
<path d="M188.621 77.3509C192.621 77.3509 195.864 74.1081 195.864 70.1079C195.864 66.1077 192.621 62.8649 188.621 62.8649C184.621 62.8649 181.378 66.1077 181.378 70.1079C181.378 74.1081 184.621 77.3509 188.621 77.3509Z" fill="#FF9162"/>
<path d="M206.017 70.8427C205.866 70.7922 205.707 70.7719 205.549 70.7828C205.391 70.7937 205.236 70.8357 205.094 70.9064C204.952 70.977 204.826 71.075 204.722 71.1946C204.617 71.3143 204.538 71.4532 204.488 71.6036C204.437 71.754 204.417 71.9129 204.428 72.0711C204.439 72.2293 204.481 72.3838 204.552 72.5257C204.623 72.6677 204.721 72.7943 204.84 72.8983C204.96 73.0023 205.099 73.0817 205.25 73.132L259.212 91.2087C259.515 91.3084 259.845 91.2841 260.13 91.1411C260.415 90.998 260.632 90.748 260.734 90.4454C260.835 90.1429 260.813 89.8126 260.671 89.5267C260.53 89.2407 260.281 89.0224 259.979 88.9194L206.017 70.8427Z" fill="#E6E6E6"/>
<path d="M203.716 77.7106C203.565 77.6601 203.407 77.6398 203.248 77.6507C203.09 77.6616 202.936 77.7036 202.794 77.7743C202.652 77.8449 202.525 77.9429 202.421 78.0625C202.317 78.1822 202.237 78.3212 202.187 78.4715C202.137 78.6219 202.116 78.7808 202.127 78.939C202.138 79.0972 202.18 79.2517 202.251 79.3936C202.322 79.5356 202.42 79.6622 202.54 79.7662C202.659 79.8702 202.799 79.9497 202.949 79.9999L226.169 87.7784C226.472 87.8781 226.802 87.8538 227.088 87.7108C227.373 87.5677 227.59 87.3176 227.691 87.0151C227.792 86.7126 227.77 86.3823 227.628 86.0963C227.487 85.8104 227.238 85.5921 226.936 85.4891L203.716 77.7106Z" fill="#E6E6E6"/>
<path d="M198.516 127.83L160.557 115.114L174.673 102.634C174.926 102.41 175.234 102.257 175.565 102.19C175.896 102.122 176.239 102.144 176.559 102.251C176.879 102.358 177.165 102.548 177.389 102.801C177.613 103.054 177.766 103.361 177.833 103.692L179.435 111.58L189.688 102.515C190.005 102.235 190.39 102.043 190.804 101.959C191.219 101.875 191.648 101.902 192.049 102.036C192.45 102.17 192.808 102.408 193.088 102.724C193.368 103.041 193.56 103.426 193.644 103.84L198.516 127.83ZM161.951 114.831L197.574 126.764L192.947 103.982C192.888 103.69 192.753 103.419 192.555 103.195C192.358 102.972 192.106 102.805 191.823 102.71C191.54 102.616 191.238 102.597 190.946 102.656C190.654 102.716 190.383 102.851 190.16 103.048L178.983 112.929L177.136 103.834C177.094 103.625 176.997 103.431 176.856 103.272C176.715 103.112 176.535 102.993 176.333 102.925C176.131 102.858 175.915 102.844 175.706 102.887C175.498 102.929 175.304 103.026 175.145 103.167L161.951 114.831Z" fill="#E6E6E6"/>
<path d="M247.073 144.096L209.114 131.38L223.231 118.9C223.484 118.676 223.791 118.523 224.122 118.456C224.453 118.389 224.796 118.41 225.116 118.517C225.436 118.624 225.722 118.814 225.946 119.067C226.17 119.32 226.323 119.627 226.39 119.958L227.992 127.846L238.246 118.781C238.562 118.501 238.947 118.31 239.362 118.225C239.776 118.141 240.205 118.168 240.606 118.302C241.007 118.436 241.365 118.674 241.646 118.99C241.926 119.307 242.117 119.692 242.201 120.107L247.073 144.096ZM210.508 131.097L246.131 143.03L241.504 120.248C241.445 119.956 241.31 119.685 241.113 119.462C240.915 119.238 240.663 119.071 240.38 118.976C240.098 118.882 239.795 118.863 239.503 118.922C239.211 118.982 238.94 119.117 238.717 119.314L227.54 129.195L225.693 120.1C225.651 119.891 225.554 119.697 225.413 119.538C225.272 119.379 225.092 119.259 224.89 119.191C224.688 119.124 224.472 119.11 224.264 119.153C224.055 119.195 223.861 119.292 223.702 119.433L210.508 131.097Z" fill="#E6E6E6"/>
<path d="M198.553 127.838L158.089 114.283C157.642 114.132 157.273 113.811 157.063 113.389C156.853 112.967 156.819 112.479 156.968 112.032L164.533 89.4476C164.684 89.0008 165.005 88.6318 165.427 88.4216C165.849 88.2114 166.337 88.1772 166.784 88.3264L207.249 101.882C207.695 102.032 208.064 102.353 208.275 102.775C208.485 103.197 208.519 103.685 208.37 104.132L200.804 126.717C200.654 127.163 200.333 127.532 199.911 127.743C199.489 127.953 199.001 127.987 198.553 127.838ZM166.558 89.0008C166.29 88.9112 165.997 88.9318 165.744 89.0579C165.491 89.184 165.298 89.4054 165.208 89.6735L157.642 112.258C157.553 112.526 157.573 112.819 157.699 113.072C157.826 113.325 158.047 113.518 158.315 113.608L198.779 127.163C199.048 127.253 199.341 127.232 199.594 127.106C199.847 126.98 200.04 126.759 200.13 126.491L207.695 103.906C207.785 103.638 207.764 103.345 207.638 103.092C207.512 102.839 207.291 102.646 207.023 102.556L166.558 89.0008Z" fill="#E6E6E6"/>
<path d="M142.561 189.264C142.41 189.212 142.251 189.191 142.092 189.202C141.934 189.212 141.779 189.254 141.636 189.324C141.493 189.395 141.366 189.493 141.262 189.613C141.157 189.732 141.077 189.872 141.027 190.023C140.976 190.174 140.956 190.333 140.967 190.492C140.978 190.65 141.021 190.805 141.092 190.947C141.164 191.09 141.262 191.216 141.383 191.32C141.503 191.424 141.643 191.503 141.794 191.553L165.014 199.331C165.164 199.382 165.323 199.402 165.482 199.391C165.64 199.38 165.794 199.338 165.936 199.268C166.078 199.197 166.205 199.099 166.309 198.98C166.413 198.86 166.493 198.721 166.543 198.571C166.593 198.42 166.614 198.261 166.603 198.103C166.592 197.945 166.55 197.79 166.479 197.648C166.408 197.506 166.31 197.38 166.19 197.276C166.071 197.172 165.931 197.092 165.781 197.042L142.561 189.264Z" fill="#E6E6E6"/>
<path d="M140.302 196.008C139.999 195.908 139.668 195.932 139.383 196.075C139.098 196.218 138.881 196.468 138.78 196.771C138.678 197.073 138.701 197.404 138.842 197.69C138.984 197.976 139.233 198.194 139.535 198.297L162.755 206.075C163.058 206.175 163.388 206.151 163.673 206.008C163.959 205.865 164.176 205.615 164.277 205.312C164.378 205.01 164.356 204.679 164.214 204.393C164.073 204.107 163.824 203.889 163.522 203.786L140.302 196.008Z" fill="#E6E6E6"/>
<path d="M144.747 221.286C143.322 220.809 142.07 219.92 141.151 218.731C140.231 217.542 139.684 216.108 139.58 214.608C139.476 213.109 139.818 211.613 140.565 210.308C141.311 209.004 142.427 207.95 143.772 207.28C145.118 206.609 146.631 206.353 148.122 206.544C149.613 206.734 151.014 207.362 152.148 208.348C153.281 209.334 154.097 210.635 154.492 212.085C154.887 213.535 154.843 215.07 154.365 216.495C153.723 218.404 152.35 219.981 150.547 220.879C148.744 221.778 146.658 221.924 144.747 221.286V221.286ZM149.348 207.55C148.056 207.118 146.665 207.078 145.351 207.436C144.037 207.793 142.858 208.533 141.964 209.561C141.07 210.588 140.501 211.858 140.328 213.209C140.156 214.561 140.388 215.933 140.996 217.152C141.603 218.371 142.558 219.383 143.741 220.059C144.923 220.736 146.279 221.046 147.638 220.952C148.997 220.857 150.298 220.362 151.375 219.528C152.452 218.695 153.258 217.56 153.691 216.269C154.269 214.537 154.136 212.646 153.322 211.012C152.508 209.377 151.079 208.132 149.348 207.55V207.55Z" fill="#E6E6E6"/>
<path d="M206.263 241.893C206.413 241.945 206.572 241.966 206.731 241.955C206.89 241.945 207.045 241.903 207.188 241.833C207.33 241.762 207.457 241.664 207.562 241.544C207.667 241.424 207.746 241.285 207.797 241.134C207.848 240.983 207.868 240.824 207.856 240.665C207.845 240.507 207.803 240.352 207.731 240.209C207.66 240.067 207.561 239.941 207.441 239.837C207.32 239.733 207.181 239.654 207.03 239.604L183.809 231.825C183.659 231.774 183.5 231.753 183.341 231.763C183.182 231.774 183.027 231.815 182.884 231.886C182.742 231.957 182.615 232.055 182.51 232.174C182.406 232.294 182.326 232.434 182.275 232.585C182.225 232.735 182.204 232.895 182.216 233.053C182.227 233.212 182.269 233.367 182.341 233.509C182.412 233.651 182.511 233.778 182.631 233.882C182.752 233.986 182.891 234.065 183.043 234.115L206.263 241.893Z" fill="#E6E6E6"/>
<path d="M208.522 235.149C208.672 235.2 208.831 235.22 208.989 235.209C209.147 235.198 209.302 235.156 209.444 235.085C209.586 235.015 209.713 234.917 209.817 234.797C209.921 234.678 210 234.539 210.051 234.388C210.101 234.238 210.121 234.079 210.11 233.921C210.099 233.763 210.057 233.608 209.986 233.466C209.916 233.324 209.818 233.198 209.698 233.094C209.578 232.99 209.439 232.91 209.289 232.86L186.069 225.081C185.918 225.03 185.759 225.009 185.6 225.019C185.441 225.03 185.286 225.071 185.144 225.142C185.001 225.213 184.874 225.311 184.769 225.43C184.665 225.55 184.585 225.69 184.534 225.841C184.484 225.991 184.464 226.151 184.475 226.309C184.486 226.468 184.529 226.623 184.6 226.765C184.671 226.907 184.77 227.034 184.89 227.138C185.011 227.242 185.151 227.321 185.302 227.371L208.522 235.149Z" fill="#E6E6E6"/>
<path d="M204.077 209.871C205.502 210.348 206.753 211.237 207.673 212.426C208.593 213.615 209.139 215.049 209.243 216.549C209.348 218.048 209.005 219.544 208.259 220.849C207.513 222.153 206.396 223.207 205.051 223.877C203.706 224.547 202.192 224.804 200.702 224.613C199.211 224.423 197.81 223.795 196.676 222.809C195.542 221.823 194.726 220.522 194.332 219.072C193.937 217.622 193.981 216.087 194.458 214.662C195.1 212.753 196.474 211.176 198.277 210.278C200.08 209.379 202.166 209.233 204.077 209.871V209.871ZM199.476 223.607C200.767 224.039 202.158 224.079 203.472 223.721C204.787 223.364 205.966 222.624 206.86 221.596C207.754 220.569 208.323 219.299 208.495 217.948C208.668 216.596 208.435 215.224 207.828 214.005C207.221 212.786 206.265 211.774 205.083 211.098C203.901 210.421 202.544 210.111 201.185 210.205C199.826 210.3 198.526 210.795 197.449 211.629C196.371 212.462 195.565 213.597 195.133 214.888C194.555 216.62 194.687 218.511 195.501 220.145C196.316 221.78 197.745 223.025 199.476 223.607V223.607Z" fill="#E6E6E6"/>
</g>
<defs>
<clipPath id="clip0_202_43">
<rect width="300" height="297.261" fill="white"/>
</clipPath>
</defs>
</svg>
