<svg width="172" height="170" viewBox="0 0 172 170" fill="none" xmlns="http://www.w3.org/2000/svg">
<g clip-path="url(#clip0_1_71)">
<path d="M17.4622 166.109H13.4764L9.87002 140.865L7.21265 126.25L16.703 124.162L16.7978 137.258L17.4622 166.109Z" fill="#9F616A"/>
<path d="M30.2742 166.109H25.9087L22.3023 140.865L19.645 126.25L29.1355 124.162L29.2304 137.258L30.2742 166.109Z" fill="#9F616A"/>
<path d="M31.3183 138.302L19.9298 140.39L18.0317 136.974L17.6522 140.2L6.83316 140.58L6.45345 114.197L28.0914 113.058L31.3183 138.302Z" fill="#2F2E41"/>
<path d="M34.9274 170H26.2015C25.847 170 25.507 169.859 25.2563 169.608C25.0056 169.358 24.8647 169.018 24.8647 168.663V166.113C24.8647 165.967 24.8934 165.823 24.9492 165.688C25.005 165.554 25.0868 165.431 25.1898 165.328C25.2929 165.225 25.4153 165.143 25.55 165.088C25.6847 165.032 25.829 165.003 25.9748 165.003C27.0372 166.043 28.2614 165.961 29.6118 165.003L29.6776 164.63C29.7094 164.45 29.7876 164.281 29.9044 164.14C30.0213 163.999 30.1727 163.891 30.3439 163.827C30.5152 163.762 30.7003 163.743 30.881 163.772C31.0618 163.8 31.232 163.876 31.3749 163.99L33.7343 165.878L34.3803 165.71C34.7026 165.627 35.0396 165.618 35.3657 165.685C35.6918 165.752 35.9982 165.892 36.2614 166.096C36.5247 166.3 36.7378 166.561 36.8844 166.86C37.031 167.159 37.1073 167.487 37.1073 167.82C37.1073 168.106 37.0509 168.39 36.9413 168.654C36.8318 168.919 36.6712 169.159 36.4688 169.362C36.2664 169.564 36.0261 169.725 35.7616 169.834C35.4971 169.944 35.2137 170 34.9274 170Z" fill="#2F2E41"/>
<path d="M22.2103 170H13.4844C13.1299 170 12.7899 169.859 12.5392 169.608C12.2885 169.358 12.1477 169.018 12.1477 168.663V166.113C12.1477 165.967 12.1764 165.823 12.2321 165.688C12.2879 165.554 12.3697 165.431 12.4728 165.328C12.5759 165.225 12.6982 165.143 12.8329 165.088C12.9676 165.032 13.1119 165.003 13.2577 165.003C14.3201 166.043 15.5443 165.961 16.8948 165.003L16.9606 164.63C16.9924 164.45 17.0705 164.281 17.1874 164.14C17.3042 163.999 17.4557 163.891 17.6269 163.827C17.7981 163.762 17.9832 163.743 18.1639 163.772C18.3447 163.8 18.5149 163.876 18.6578 163.99L21.0173 165.878L21.6633 165.71C21.9855 165.627 22.3226 165.618 22.6486 165.685C22.9747 165.752 23.2811 165.892 23.5444 166.096C23.8076 166.3 24.0207 166.561 24.1674 166.86C24.314 167.159 24.3902 167.487 24.3902 167.82C24.3902 168.106 24.3338 168.39 24.2243 168.654C24.1147 168.919 23.9542 169.159 23.7517 169.362C23.5493 169.564 23.309 169.725 23.0445 169.834C22.7801 169.944 22.4966 170 22.2103 170Z" fill="#2F2E41"/>
<path d="M23.5361 64.2775C27.4147 64.2775 30.5589 61.1332 30.5589 57.2546C30.5589 53.376 27.4147 50.2318 23.5361 50.2318C19.6574 50.2318 16.5132 53.376 16.5132 57.2546C16.5132 61.1332 19.6574 64.2775 23.5361 64.2775Z" fill="#9F616A"/>
<path d="M19.3603 68.8329L12.9069 67.1245L17.4622 57.2547L23.5361 61.6203L19.3603 68.8329Z" fill="#9F616A"/>
<path d="M28.8507 115.336C23.1446 112.296 19.1931 114.162 14.0687 117.84C10.0777 120.704 4.4449 117.527 0 116.664L3.44169 77.4589C3.71547 74.3401 4.90381 71.3716 6.85772 68.9254C8.81164 66.4792 11.4442 64.6643 14.4253 63.7081L20.689 66.5552C23.5777 70.6685 24.4989 79.2873 26.0036 89.332C27.3016 97.9972 27.7664 105.754 28.8507 115.336Z" fill="#FF9162"/>
<path d="M22.0176 110.211L22.8995 114.951C22.9817 115.393 22.9735 115.847 22.8754 116.285C22.7772 116.724 22.5912 117.138 22.3286 117.503C22.0659 117.868 21.732 118.175 21.3471 118.408C20.9622 118.64 20.5343 118.791 20.0891 118.853C19.559 118.927 19.0188 118.872 18.5145 118.693C18.0102 118.514 17.5566 118.215 17.1923 117.823C16.828 117.431 16.5638 116.956 16.422 116.44C16.2803 115.924 16.2652 115.381 16.3781 114.858L17.4623 109.831L12.1477 89.1422L12.9069 81.7397L20.4992 81.5499C21.2216 83.728 20.9631 86.0132 19.9298 88.383L22.0176 110.211Z" fill="#9F616A"/>
<path d="M19.4766 58.1237C20.0333 58.0905 20.5769 58.2787 21.1298 58.3521C23.1077 58.6147 25.1653 57.1794 25.6021 55.2325C25.6371 54.9732 25.7143 54.7214 25.8308 54.4872C26.1352 53.9902 26.8285 53.8954 27.4 54.0097C27.9715 54.124 28.5133 54.3915 29.0953 54.422C29.9939 54.4692 30.8567 53.9159 31.3356 53.154C31.7882 52.3681 31.9807 51.4591 31.8855 50.5571L31.4547 51.0093C31.2796 50.639 31.212 50.2269 31.2596 49.82C31.0313 49.7592 30.7912 49.7581 30.5624 49.8166C30.3335 49.8752 30.1235 49.9915 29.9524 50.1545C29.5725 50.195 29.8593 49.4499 29.577 49.1924C29.4398 49.1081 29.2762 49.0775 29.1177 49.1065C28.3096 49.1143 27.6559 48.4962 27.019 47.9986C25.9156 47.1384 24.6253 46.5498 23.2524 46.2805C22.3399 46.1025 21.3695 46.0739 20.5041 46.4137C19.8055 46.7273 19.175 47.1746 18.6481 47.7303C17.2932 49.0331 16.0934 50.5639 15.5298 52.357C15.0715 53.8257 15.0585 55.3973 15.4925 56.8734C15.7196 57.64 16.4041 60.2653 17.4062 60.3264C18.6653 60.4033 17.9093 58.2172 19.4766 58.1237Z" fill="#2F2E41"/>
<path d="M22.587 85.1563C18.8297 82.3689 14.9143 81.8228 10.819 83.8276L12.4453 72.9857C12.6264 71.7779 13.2351 70.6753 14.1605 69.8783C15.0859 69.0814 16.2667 68.6431 17.4879 68.6431C18.8403 68.6431 20.1373 69.1803 21.0935 70.1365C22.0498 71.0928 22.587 72.3898 22.587 73.7421L22.587 85.1563Z" fill="#FF9162"/>
<path d="M163.997 57.9L163.161 57.6197L170.838 34.7016C171.422 32.9597 171.656 31.1199 171.529 29.2873C171.401 27.4547 170.914 25.6651 170.095 24.0208C169.276 22.3765 168.141 20.9096 166.755 19.7039C165.369 18.4982 163.759 17.5773 162.017 16.9937L162.017 16.9937L113.462 0.728275C111.72 0.144752 109.88 -0.0899632 108.048 0.0375299C106.215 0.165023 104.426 0.652228 102.781 1.47133C101.137 2.29043 99.67 3.42538 98.4643 4.81139C97.2586 6.19739 96.3377 7.80731 95.7541 9.54921L95.7541 9.54925L53.6357 135.28C52.4573 138.798 52.7246 142.64 54.3788 145.961C56.0331 149.282 58.9388 151.809 62.4567 152.988H62.4567L111.012 169.253C114.53 170.432 118.372 170.165 121.693 168.51C125.014 166.856 127.541 163.95 128.72 160.432L128.72 160.432L157.696 73.9333L158.533 74.2135L163.997 57.9Z" fill="#3F3D56"/>
<path d="M161.396 20.6239L155.058 18.5008C155.11 19.313 154.962 20.1256 154.626 20.8669C154.29 21.6083 153.777 22.2556 153.132 22.7519C152.487 23.2483 151.73 23.5784 150.927 23.7131C150.124 23.8479 149.301 23.7832 148.529 23.5247L120.712 14.2064C119.941 13.9478 119.244 13.5034 118.685 12.9124C118.125 12.3213 117.72 11.6017 117.504 10.8169C117.288 10.0322 117.268 9.20639 117.447 8.41229C117.625 7.61819 117.996 6.88015 118.527 6.2632L112.607 4.28014C109.98 3.40007 107.111 3.59968 104.631 4.83505C102.151 6.07043 100.263 8.24037 99.3833 10.8675L57.3267 136.414C56.4466 139.041 56.6462 141.91 57.8816 144.39C59.117 146.87 61.2869 148.758 63.9141 149.638H63.9141L112.703 165.982C114.004 166.417 115.378 166.593 116.746 166.497C118.115 166.402 119.451 166.038 120.679 165.427C121.907 164.815 123.003 163.967 123.903 162.932C124.804 161.897 125.491 160.695 125.927 159.394L167.984 33.8479C168.42 32.5471 168.595 31.1732 168.5 29.8046C168.404 28.436 168.041 27.0996 167.429 25.8716C166.817 24.6437 165.97 23.5482 164.935 22.6478C163.899 21.7474 162.697 21.0597 161.396 20.6239Z" fill="white"/>
<path d="M149.195 62.7434L97.1277 45.3014C96.8721 45.2154 96.6611 45.0317 96.5409 44.7903C96.4207 44.549 96.4011 44.2699 96.4865 44.0142L100.813 31.0985C100.899 30.8429 101.083 30.6319 101.324 30.5117C101.565 30.3915 101.845 30.3719 102.1 30.4573L154.168 47.8993C154.423 47.9852 154.634 48.169 154.754 48.4103C154.875 48.6516 154.894 48.9307 154.809 49.1865L150.482 62.1022C150.396 62.3577 150.213 62.5687 149.971 62.6889C149.73 62.8091 149.451 62.8287 149.195 62.7434ZM101.971 30.8429C101.818 30.7917 101.65 30.8035 101.505 30.8756C101.361 30.9477 101.25 31.0743 101.199 31.2277L96.8721 44.1434C96.8209 44.2968 96.8327 44.4643 96.9048 44.6091C96.9769 44.7539 97.1035 44.8641 97.2569 44.9157L149.324 62.3577C149.478 62.4089 149.645 62.3972 149.79 62.325C149.935 62.2529 150.045 62.1263 150.097 61.973L154.423 49.0573C154.474 48.9038 154.463 48.7363 154.391 48.5916C154.318 48.4468 154.192 48.3365 154.038 48.285L101.971 30.8429Z" fill="#3F3D56"/>
<path d="M132.076 113.846L80.0087 96.4044C79.7532 96.3185 79.5422 96.1347 79.4219 95.8934C79.3017 95.6521 79.2821 95.373 79.3675 95.1172L87.3763 71.2096C87.4622 70.954 87.646 70.743 87.8873 70.6228C88.1286 70.5026 88.4078 70.483 88.6635 70.5684L140.731 88.0104C140.986 88.0963 141.197 88.2801 141.318 88.5214C141.438 88.7627 141.457 89.0418 141.372 89.2976L133.363 113.205C133.277 113.461 133.094 113.672 132.852 113.792C132.611 113.912 132.332 113.932 132.076 113.846ZM88.5343 70.954C88.3809 70.9028 88.2134 70.9146 88.0686 70.9867C87.9238 71.0588 87.8135 71.1854 87.762 71.3388L79.7532 95.2464C79.7019 95.3999 79.7137 95.5674 79.7858 95.7122C79.8579 95.857 79.9846 95.9672 80.1379 96.0188L132.205 113.461C132.359 113.512 132.526 113.5 132.671 113.428C132.816 113.356 132.926 113.229 132.978 113.076L140.986 89.1684C141.038 89.0149 141.026 88.8474 140.954 88.7026C140.882 88.5578 140.755 88.4476 140.602 88.396L88.5343 70.954Z" fill="#3F3D56"/>
<path d="M142.091 82.6698L118.95 74.9177C118.694 74.8318 118.483 74.648 118.363 74.4067C118.243 74.1654 118.223 73.8863 118.309 73.6305L122.635 60.7148C122.721 60.4593 122.905 60.2483 123.146 60.1281C123.388 60.0079 123.667 59.9883 123.922 60.0736L147.064 67.8256C147.319 67.9116 147.53 68.0953 147.65 68.3366C147.771 68.578 147.79 68.8571 147.705 69.1128L143.378 82.0285C143.292 82.2841 143.108 82.4951 142.867 82.6153C142.626 82.7355 142.347 82.7551 142.091 82.6698ZM123.793 60.4593C123.64 60.4081 123.472 60.4198 123.328 60.4919C123.183 60.5641 123.073 60.6907 123.021 60.844L118.694 73.7597C118.643 73.9132 118.655 74.0806 118.727 74.2254C118.799 74.3702 118.926 74.4805 119.079 74.532L142.22 82.2841C142.374 82.3353 142.541 82.3235 142.686 82.2514C142.831 82.1793 142.941 82.0527 142.993 81.8993L147.319 68.9836C147.37 68.8302 147.359 68.6627 147.286 68.5179C147.214 68.3731 147.088 68.2629 146.934 68.2113L123.793 60.4593Z" fill="#E6E6E6"/>
<path d="M92.6846 135.397L69.5435 127.645C69.288 127.559 69.077 127.375 68.9567 127.134C68.8365 126.892 68.817 126.613 68.9023 126.358L76.9757 102.257C77.0616 102.002 77.2454 101.791 77.4867 101.67C77.7281 101.55 78.0072 101.531 78.2629 101.616L101.404 109.368C101.66 109.454 101.871 109.638 101.991 109.879C102.111 110.12 102.131 110.399 102.045 110.655L93.9718 134.756C93.8859 135.011 93.7021 135.222 93.4608 135.342C93.2195 135.463 92.9404 135.482 92.6846 135.397ZM78.1337 102.002C77.9803 101.95 77.8128 101.962 77.668 102.034C77.5232 102.106 77.4129 102.233 77.3614 102.386L69.288 126.487C69.2368 126.64 69.2485 126.808 69.3206 126.953C69.3928 127.097 69.5194 127.208 69.6727 127.259L92.8138 135.011C92.9673 135.062 93.1348 135.051 93.2796 134.979C93.4243 134.906 93.5346 134.78 93.5862 134.626L101.66 110.526C101.711 110.372 101.699 110.205 101.627 110.06C101.555 109.915 101.428 109.805 101.275 109.754L78.1337 102.002Z" fill="#E6E6E6"/>
<path d="M121.225 144.958L98.0841 137.206C97.8285 137.12 97.6175 136.936 97.4973 136.695C97.3771 136.453 97.3575 136.174 97.4429 135.918L105.516 111.818C105.602 111.562 105.786 111.351 106.027 111.231C106.269 111.111 106.548 111.091 106.803 111.177L129.945 118.929C130.2 119.015 130.411 119.198 130.531 119.44C130.652 119.681 130.671 119.96 130.586 120.216L122.512 144.316C122.426 144.572 122.243 144.783 122.001 144.903C121.76 145.023 121.481 145.043 121.225 144.958ZM106.674 111.562C106.521 111.511 106.353 111.523 106.209 111.595C106.064 111.667 105.954 111.794 105.902 111.947L97.8285 136.048C97.7773 136.201 97.7891 136.369 97.8612 136.513C97.9333 136.658 98.06 136.768 98.2133 136.82L121.354 144.572C121.508 144.623 121.675 144.611 121.82 144.539C121.965 144.467 122.075 144.341 122.127 144.187L130.2 120.087C130.251 119.933 130.24 119.766 130.167 119.621C130.095 119.476 129.969 119.366 129.815 119.314L106.674 111.562Z" fill="#E6E6E6"/>
<path d="M93.5309 85.7607C95.8186 85.7607 97.6731 83.9062 97.6731 81.6185C97.6731 79.3308 95.8186 77.4763 93.5309 77.4763C91.2433 77.4763 89.3888 79.3308 89.3888 81.6185C89.3888 83.9062 91.2433 85.7607 93.5309 85.7607Z" fill="#FF9162"/>
<path d="M103.479 82.0388C103.393 82.0094 103.302 81.9973 103.211 82.0033C103.12 82.0092 103.032 82.0331 102.95 82.0734C102.869 82.1138 102.796 82.1698 102.736 82.2384C102.676 82.3069 102.631 82.3866 102.602 82.4729C102.573 82.5592 102.561 82.6503 102.568 82.741C102.574 82.8318 102.598 82.9204 102.639 83.0017C102.68 83.083 102.736 83.1555 102.805 83.2149C102.874 83.2743 102.954 83.3196 103.041 83.348L133.901 93.6859C133.987 93.7153 134.078 93.7273 134.169 93.7214C134.26 93.7155 134.348 93.6916 134.43 93.6513C134.511 93.611 134.584 93.5549 134.644 93.4863C134.704 93.4178 134.75 93.3381 134.778 93.2518C134.807 93.1655 134.819 93.0744 134.812 92.9836C134.806 92.8929 134.782 92.8043 134.741 92.7229C134.7 92.6416 134.644 92.5691 134.575 92.5097C134.506 92.4503 134.426 92.4051 134.339 92.3766L103.479 82.0388Z" fill="#E6E6E6"/>
<path d="M102.163 85.9664C102.077 85.9371 101.986 85.925 101.895 85.931C101.805 85.9369 101.716 85.9607 101.634 86.0011C101.553 86.0414 101.48 86.0975 101.42 86.166C101.36 86.2346 101.315 86.3143 101.286 86.4006C101.257 86.4868 101.245 86.578 101.252 86.6687C101.258 86.7595 101.283 86.848 101.323 86.9294C101.364 87.0107 101.421 87.0831 101.49 87.1426C101.558 87.202 101.638 87.2472 101.725 87.2757L115.004 91.7241C115.177 91.7811 115.366 91.7672 115.529 91.6854C115.692 91.6036 115.817 91.4606 115.875 91.2876C115.932 91.1146 115.92 90.9257 115.839 90.7621C115.758 90.5986 115.615 90.4737 115.443 90.4148L102.163 85.9664Z" fill="#E6E6E6"/>
<path d="M87.9762 88.1978C87.4783 88.031 86.9747 88.1889 86.8538 88.5498C86.7329 88.9107 87.0397 89.3402 87.5376 89.507L130.115 103.77C130.613 103.937 131.117 103.779 131.238 103.418C131.359 103.057 131.052 102.628 130.554 102.461L87.9762 88.1978Z" fill="#E6E6E6"/>
<path d="M86.6605 92.1254C86.1626 91.9586 85.659 92.1166 85.5381 92.4775C85.4172 92.8384 85.724 93.2679 86.222 93.4347L128.8 107.698C129.298 107.865 129.801 107.707 129.922 107.346C130.043 106.985 129.736 106.555 129.238 106.389L86.6605 92.1254Z" fill="#E6E6E6"/>
<path d="M107.87 44.2361C110.158 44.2361 112.012 42.3815 112.012 40.0939C112.012 37.8062 110.158 35.9517 107.87 35.9517C105.583 35.9517 103.728 37.8062 103.728 40.0939C103.728 42.3815 105.583 44.2361 107.87 44.2361Z" fill="#FF9162"/>
<path d="M117.818 40.5141C117.732 40.4853 117.642 40.4736 117.551 40.4798C117.461 40.4861 117.372 40.5101 117.291 40.5505C117.21 40.5909 117.137 40.647 117.078 40.7154C117.018 40.7838 116.973 40.8633 116.944 40.9493C116.915 41.0353 116.904 41.1261 116.91 41.2166C116.916 41.3071 116.94 41.3955 116.981 41.4766C117.021 41.5578 117.077 41.6302 117.146 41.6897C117.214 41.7492 117.294 41.7946 117.38 41.8233L148.24 52.1612C148.413 52.2182 148.602 52.2043 148.765 52.1225C148.929 52.0407 149.053 51.8977 149.111 51.7247C149.168 51.5517 149.156 51.3628 149.075 51.1993C148.994 51.0357 148.851 50.9109 148.679 50.852L117.818 40.5141Z" fill="#E6E6E6"/>
<path d="M116.503 44.4418C116.417 44.4129 116.326 44.4013 116.235 44.4075C116.145 44.4138 116.057 44.4378 115.975 44.4782C115.894 44.5186 115.822 44.5746 115.762 44.643C115.703 44.7115 115.657 44.791 115.628 44.877C115.599 44.963 115.588 45.0538 115.594 45.1443C115.601 45.2348 115.625 45.3231 115.665 45.4043C115.706 45.4855 115.762 45.5579 115.83 45.6174C115.899 45.6769 115.978 45.7223 116.064 45.751L129.343 50.1994C129.517 50.2565 129.706 50.2425 129.869 50.1608C130.032 50.079 130.156 49.9359 130.214 49.7629C130.272 49.5899 130.259 49.401 130.178 49.2375C130.097 49.074 129.955 48.9491 129.782 48.8902L116.503 44.4418Z" fill="#E6E6E6"/>
<path d="M113.529 73.1044L91.8208 65.8324L99.8937 58.695C100.038 58.5671 100.214 58.4795 100.403 58.4411C100.593 58.4026 100.789 58.4147 100.972 58.476C101.155 58.5374 101.319 58.6459 101.447 58.7906C101.575 58.9353 101.662 59.1111 101.701 59.3003L102.617 63.8114L108.481 58.6272C108.662 58.4671 108.882 58.3574 109.119 58.3093C109.356 58.2612 109.601 58.2763 109.831 58.3531C110.06 58.4299 110.265 58.5657 110.425 58.7468C110.585 58.928 110.695 59.1481 110.743 59.3851L113.529 73.1044ZM92.618 65.6704L112.99 72.495L110.344 59.466C110.31 59.299 110.233 59.1439 110.12 59.0163C110.007 58.8886 109.863 58.7929 109.701 58.7388C109.54 58.6846 109.367 58.674 109.2 58.7079C109.033 58.7418 108.878 58.8191 108.75 58.932L102.358 64.5828L101.302 59.3813C101.278 59.262 101.223 59.1512 101.142 59.06C101.061 58.9688 100.958 58.9004 100.843 58.8617C100.727 58.8231 100.604 58.8155 100.484 58.8397C100.365 58.8639 100.254 58.9191 100.163 58.9998L92.618 65.6704Z" fill="#E6E6E6"/>
<path d="M141.298 82.4068L119.59 75.1348L127.663 67.9974C127.808 67.8695 127.983 67.7819 128.173 67.7435C128.362 67.705 128.558 67.7171 128.741 67.7784C128.924 67.8398 129.088 67.9483 129.216 68.093C129.344 68.2377 129.431 68.4135 129.47 68.6027L130.386 73.1138L136.25 67.9296C136.431 67.7695 136.651 67.6598 136.888 67.6117C137.125 67.5636 137.37 67.5787 137.6 67.6555C137.829 67.7323 138.034 67.8681 138.194 68.0492C138.354 68.2304 138.464 68.4505 138.512 68.6875L141.298 82.4068ZM120.387 74.9729L140.76 81.7974L138.113 68.7684C138.08 68.6014 138.002 68.4463 137.889 68.3187C137.777 68.191 137.632 68.0953 137.471 68.0412C137.309 67.987 137.136 67.9764 136.969 68.0103C136.802 68.0442 136.647 68.1215 136.519 68.2344L130.128 73.8852L129.071 68.6837C129.047 68.5644 128.992 68.4536 128.911 68.3624C128.831 68.2712 128.727 68.2028 128.612 68.1641C128.497 68.1255 128.373 68.1179 128.254 68.1421C128.134 68.1663 128.024 68.2215 127.932 68.3022L120.387 74.9729Z" fill="#E6E6E6"/>
<path d="M113.55 73.1089L90.4093 65.3569C90.1537 65.271 89.9427 65.0872 89.8225 64.8459C89.7023 64.6046 89.6827 64.3254 89.7681 64.0697L94.0947 51.154C94.1806 50.8985 94.3644 50.6875 94.6057 50.5673C94.847 50.4471 95.1261 50.4275 95.3819 50.5128L118.523 58.2648C118.779 58.3508 118.99 58.5345 119.11 58.7759C119.23 59.0172 119.25 59.2963 119.164 59.552L114.838 72.4677C114.752 72.7233 114.568 72.9343 114.327 73.0545C114.085 73.1747 113.806 73.1943 113.55 73.1089ZM95.2527 50.8985C95.0993 50.8473 94.9318 50.859 94.787 50.9311C94.6422 51.0033 94.5319 51.1299 94.4804 51.2832L90.1538 64.1989C90.1025 64.3524 90.1143 64.5198 90.1864 64.6646C90.2585 64.8094 90.3851 64.9197 90.5385 64.9712L113.68 72.7233C113.833 72.7745 114.001 72.7627 114.145 72.6906C114.29 72.6185 114.4 72.4918 114.452 72.3385L118.779 59.4228C118.83 59.2694 118.818 59.1019 118.746 58.9571C118.674 58.8123 118.547 58.7021 118.394 58.6505L95.2527 50.8985Z" fill="#E6E6E6"/>
<path d="M81.5289 108.238C81.4428 108.208 81.3518 108.196 81.261 108.202C81.1702 108.208 81.0815 108.232 80.9999 108.272C80.9184 108.313 80.8456 108.369 80.7858 108.437C80.726 108.506 80.6804 108.586 80.6515 108.672C80.6226 108.758 80.611 108.849 80.6174 108.94C80.6239 109.031 80.6482 109.119 80.689 109.201C80.7298 109.282 80.7862 109.354 80.8551 109.414C80.924 109.473 81.0039 109.518 81.0904 109.547L94.3696 113.995C94.4556 114.024 94.5465 114.036 94.6369 114.03C94.7274 114.023 94.8158 113.999 94.897 113.959C94.9782 113.919 95.0507 113.862 95.1102 113.794C95.1697 113.726 95.2152 113.646 95.244 113.56C95.2728 113.474 95.2844 113.383 95.2781 113.293C95.2718 113.202 95.2477 113.114 95.2072 113.033C95.1668 112.952 95.1107 112.879 95.0422 112.82C94.9738 112.76 94.8943 112.715 94.8082 112.686L81.5289 108.238Z" fill="#E6E6E6"/>
<path d="M80.2369 112.095C80.0636 112.037 79.8748 112.051 79.7117 112.133C79.5486 112.215 79.4245 112.358 79.3665 112.531C79.3086 112.704 79.3215 112.893 79.4024 113.056C79.4833 113.22 79.6257 113.345 79.7984 113.404L93.0776 117.852C93.251 117.909 93.4398 117.895 93.6029 117.813C93.766 117.732 93.8901 117.589 93.9481 117.416C94.006 117.243 93.9931 117.054 93.9122 116.89C93.8313 116.727 93.6889 116.602 93.5162 116.543L80.2369 112.095Z" fill="#E6E6E6"/>
<path d="M82.779 126.551C81.964 126.278 81.2483 125.769 80.7224 125.09C80.1965 124.41 79.8839 123.589 79.8243 122.732C79.7646 121.875 79.9605 121.019 80.3873 120.273C80.814 119.527 81.4524 118.924 82.2217 118.541C82.991 118.158 83.8567 118.011 84.7092 118.12C85.5618 118.229 86.3629 118.588 87.0114 119.152C87.6598 119.716 88.1264 120.46 88.3522 121.289C88.578 122.118 88.5528 122.996 88.2798 123.811C87.9126 124.903 87.1272 125.805 86.096 126.318C85.0647 126.832 83.8718 126.916 82.779 126.551ZM85.4104 118.696C84.6717 118.448 83.8763 118.425 83.1246 118.63C82.373 118.835 81.6989 119.258 81.1876 119.845C80.6763 120.433 80.3508 121.159 80.2522 121.932C80.1536 122.705 80.2864 123.489 80.6337 124.187C80.9811 124.884 81.5274 125.463 82.2036 125.849C82.8798 126.236 83.6555 126.414 84.4327 126.36C85.2098 126.306 85.9535 126.022 86.5696 125.546C87.1857 125.069 87.6467 124.42 87.8941 123.682C88.2246 122.691 88.1488 121.61 87.6832 120.675C87.2176 119.74 86.4002 119.028 85.4104 118.696Z" fill="#E6E6E6"/>
<path d="M117.959 138.336C118.045 138.365 118.136 138.377 118.227 138.371C118.318 138.365 118.407 138.342 118.488 138.301C118.57 138.261 118.642 138.205 118.702 138.136C118.762 138.068 118.808 137.988 118.837 137.902C118.866 137.815 118.877 137.724 118.871 137.634C118.864 137.543 118.84 137.454 118.799 137.373C118.758 137.292 118.702 137.219 118.633 137.16C118.564 137.1 118.484 137.055 118.398 137.027L105.118 132.578C105.032 132.549 104.941 132.537 104.851 132.543C104.76 132.549 104.671 132.573 104.589 132.613C104.508 132.653 104.435 132.709 104.375 132.778C104.316 132.846 104.27 132.926 104.241 133.012C104.212 133.099 104.201 133.19 104.207 133.28C104.213 133.371 104.238 133.46 104.279 133.541C104.319 133.622 104.376 133.695 104.445 133.754C104.514 133.814 104.593 133.859 104.68 133.887L117.959 138.336Z" fill="#E6E6E6"/>
<path d="M119.251 134.479C119.337 134.508 119.428 134.52 119.518 134.513C119.609 134.507 119.697 134.483 119.779 134.443C119.86 134.402 119.932 134.346 119.992 134.278C120.051 134.209 120.097 134.13 120.126 134.044C120.154 133.958 120.166 133.867 120.16 133.777C120.153 133.686 120.129 133.598 120.089 133.516C120.048 133.435 119.992 133.363 119.924 133.303C119.855 133.244 119.776 133.199 119.69 133.17L106.411 128.721C106.324 128.692 106.233 128.68 106.143 128.686C106.052 128.692 105.963 128.716 105.882 128.756C105.8 128.796 105.727 128.852 105.667 128.921C105.608 128.99 105.562 129.069 105.533 129.156C105.504 129.242 105.493 129.333 105.499 129.424C105.505 129.514 105.53 129.603 105.571 129.684C105.611 129.766 105.668 129.838 105.737 129.898C105.806 129.957 105.886 130.002 105.972 130.031L119.251 134.479Z" fill="#E6E6E6"/>
<path d="M116.709 120.023C117.524 120.296 118.24 120.804 118.766 121.484C119.292 122.164 119.604 122.984 119.664 123.842C119.724 124.699 119.528 125.555 119.101 126.301C118.674 127.047 118.036 127.65 117.266 128.033C116.497 128.416 115.631 128.563 114.779 128.454C113.926 128.345 113.125 127.986 112.477 127.422C111.828 126.858 111.362 126.114 111.136 125.285C110.91 124.455 110.935 123.578 111.208 122.763C111.576 121.671 112.361 120.769 113.392 120.255C114.423 119.742 115.616 119.658 116.709 120.023ZM114.078 127.878C114.816 128.125 115.612 128.148 116.364 127.944C117.115 127.739 117.789 127.316 118.301 126.728C118.812 126.141 119.137 125.414 119.236 124.642C119.335 123.869 119.202 123.084 118.854 122.387C118.507 121.69 117.961 121.111 117.285 120.724C116.608 120.337 115.833 120.16 115.055 120.214C114.278 120.268 113.535 120.551 112.919 121.028C112.302 121.505 111.841 122.153 111.594 122.892C111.263 123.883 111.339 124.964 111.805 125.899C112.271 126.833 113.088 127.545 114.078 127.878Z" fill="#E6E6E6"/>
</g>
<defs>
<clipPath id="clip0_1_71">
<rect width="171.566" height="170" fill="white"/>
</clipPath>
</defs>
</svg>
